<svg width="1200" height="61" viewBox="0 0 1200 61" fill="none" xmlns="http://www.w3.org/2000/svg">
<rect width="1200" height="61" fill="url(#paint0_linear_6_128)" fill-opacity="0.25"/>
<mask id="mask0_6_128" style="mask-type:alpha" maskUnits="userSpaceOnUse" x="0" y="0" width="1200" height="61">
<rect width="1200" height="61" fill="#D9D9D9"/>
</mask>
<g mask="url(#mask0_6_128)">
<g filter="url(#filter0_f_6_128)">
<path d="M-12 532C-12 247.573 218.573 17 503 17H696C980.427 17 1211 247.573 1211 532V532H-12V532Z" fill="url(#paint1_linear_6_128)" fill-opacity="0.5"/>
</g>
</g>
<path fill-rule="evenodd" clip-rule="evenodd" d="M840.25 39.3333C834.7 32.7794 826.548 29 817.96 29H380.417C372.285 29 364.629 32.8283 359.75 39.3333V39.3333C354.871 45.8383 347.215 49.6667 339.083 49.6667L5.16667 49.6667C2.3132 49.6667 0 51.9799 0 54.8333V54.8333C0 57.6868 2.31318 60 5.16665 60H1194.83C1197.69 60 1200 57.6868 1200 54.8333V54.8333C1200 51.9799 1197.69 49.6667 1194.83 49.6667L862.54 49.6667C853.952 49.6667 845.8 45.8872 840.25 39.3333V39.3333Z" fill="url(#paint2_linear_6_128)" fill-opacity="0.8"/>
<path fill-rule="evenodd" clip-rule="evenodd" d="M840.25 40.9999C834.69 34.6451 826.656 30.9999 818.212 30.9999H380.152C372.171 30.9999 364.639 34.6918 359.75 40.9999C354.861 47.3081 347.329 50.9999 339.348 50.9999L5 50.9999C4.99154 50.9999 4.98309 51 4.97464 51H0V55.9999V61H30H1170H1200V55.9999V51H1195.03L1195 50.9999L862.288 50.9999C853.844 50.9999 845.81 47.3548 840.25 40.9999Z" fill="#081d3d"/>
<defs>
<filter id="filter0_f_6_128" x="-36.5" y="-7.5" width="1272" height="564" filterUnits="userSpaceOnUse" color-interpolation-filters="sRGB">
<feFlood flood-opacity="0" result="BackgroundImageFix"/>
<feBlend mode="normal" in="SourceGraphic" in2="BackgroundImageFix" result="shape"/>
<feGaussianBlur stdDeviation="12.25" result="effect1_foregroundBlur_6_128"/>
</filter>
<linearGradient id="paint0_linear_6_128" x1="600" y1="0" x2="600" y2="61" gradientUnits="userSpaceOnUse">
<stop stop-color="#DD00AC" stop-opacity="0"/>
<stop offset="1" stop-color="#DD00AC" stop-opacity="0.15"/>
</linearGradient>
<linearGradient id="paint1_linear_6_128" x1="600.697" y1="17" x2="574.576" y2="530.733" gradientUnits="userSpaceOnUse">
<stop stop-color="#D601AB" stop-opacity="0.06"/>
<stop offset="1" stop-color="#D601AB"/>
</linearGradient>
<linearGradient id="paint2_linear_6_128" x1="0" y1="60.0007" x2="1200" y2="60.0008" gradientUnits="userSpaceOnUse">
<stop stop-color="#432372" stop-opacity="0"/>
<stop offset="0.338542" stop-color="#410093" stop-opacity="0.697917"/>
<stop offset="0.5" stop-color="#DD00AC" stop-opacity="0.6"/>
<stop offset="0.666667" stop-color="#410093" stop-opacity="0.760417"/>
<stop offset="1" stop-color="#432372" stop-opacity="0"/>
</linearGradient>
</defs>
</svg>
